# xmcd
#
# Track frame offsets:
#	150
#	15870
#	27457
#	37482
#	45495
#	61555
#	67722
#	75890
#	90602
#	108350
#	124952
#	134320
#	142045
#	156677
#	165742
#
# Disc length: 2415 seconds
#
# Revision: 0
# Processed by: cddbd v1.4PL0 Copyright (c) Steve Scherf et al.
# Submitted via: EasyCDDAExtractor 4.6.0.1
#
DISCID=c0096d0f
DTITLE=Banda Zorro  - Zorro MIX
DYEAR=1998
DGENRE=Latin
TTITLE0=REINA GITANA
TTITLE1=DULCES SUEÑOS
TTITLE2=ELLA ES
TTITLE3=POBRE MARIA
TTITLE4=LUDIVINA
TTITLE5=EL TOSTON
TTITLE6=NO QUIERO IR A DALLAS
TTITLE7=LOS DETALLES
TTITLE8=GRAN FORTUNA
TTITLE9=ECHAME A MI LA CULPA
TTITLE10=QUE LASTIMA
TTITLE11=CANCION ROMANTICA
TTITLE12=DONDE ESTAS
TTITLE13=LAS CADERAS
TTITLE14=MI LINDA CHIQUILLA
EXTD=
EXTT0=
EXTT1=
EXTT2=
EXTT3=
EXTT4=
EXTT5=
EXTT6=
EXTT7=
EXTT8=
EXTT9=
EXTT10=
EXTT11=
EXTT12=
EXTT13=
EXTT14=
PLAYORDER=
